<?xml version="1.0" standalone="no"?><?xml-stylesheet type="text/css" href="https://www.processon.com/themes/default/mind/icons/icons.css" ?><!DOCTYPE svg PUBLIC "-//W3C//DTD SVG 1.1//EN" "http://www.w3.org/Graphics/SVG/1.1/DTD/svg11.dtd"><svg xmlns="http://www.w3.org/2000/svg" xlink="http://www.w3.org/1999/xlink" id="mind-svg-view-con" version="1.1" width="1426.8750343322754px" height="250px"><defs></defs><g transform="translate(-9168.625392913818, -9810.000213623047)" id="sdjakdjak7"><defs></defs><g class="svg-topic-con" transform="translate(0.5,0.5)"><path part="right" sub="true" id="line_352badb7cb50" d="M 10000 9935.000213623047 L 10000 9871.10000038147 A 8 8 0 0 1 10008 9863.10000038147 L 10144.5 9863.10000038147" stroke="rgb(170,170,170)" fill="none" stroke-width="1"></path><path part="right" sub="true" id="line_cbfb8463e20e" d="M 10000 9935.000213623047 L 10000 9935.10000038147 L 10144.5 9935.10000038147" stroke="rgb(170,170,170)" fill="none" stroke-width="1"></path><path part="right" sub="true" id="line_8c68cfd9da8d" d="M 10000 9935.000213623047 L 10000 9999.10000038147 A 8 8 0 0 0 10008 10007.10000038147 L 10144.5 10007.10000038147" stroke="rgb(170,170,170)" fill="none" stroke-width="1"></path><path part="left" sub="true" id="line_fc169d9b59c1" d="M 10000.000427246094 9935.000213623047 L 10000.000427246094 9871.100214004517 A 8 8 0 0 0 9992.000427246094 9863.100214004517 L 9855.500396728516 9863.100214004517" stroke="rgb(170,170,170)" fill="none" stroke-width="1"></path><path part="left" sub="true" id="line_2cc70cf51a18" d="M 10000.000427246094 9935.000213623047 L 10000.000427246094 9935.100214004517 L 9855.500392913818 9935.100214004517" stroke="rgb(170,170,170)" fill="none" stroke-width="1"></path><path part="left" sub="true" id="line_5da7c7e2c282" d="M 10000.000427246094 9935.000213623047 L 10000.000427246094 9999.100214004517 A 8 8 0 0 1 9992.000427246094 10007.100214004517 L 9855.500396728516 10007.100214004517" stroke="rgb(170,170,170)" fill="none" stroke-width="1"></path></g><g class="svg-connection-con" transform="translate(0.5,0.5)"></g><g class="svg-freesums-con" transform="translate(0.5,0.5)"></g><g class="svg-freebos-con" transform="translate(0.5,0.5)"></g></g><g id="8c68cfd9da8d"><rect x="975.8750343322754" y="174" rx="5px" ry="5px" width="360" height="46" style="fill: #ffffff; stroke:rgb(187,187,187);stroke-width:1px;"></rect><g><text text-anchor="start" align="top" anchor="start" font-size="17px" font-weight="normal" fill="rgb(68, 68, 68)" style="font-size:17px;font-family:微软雅黑;color:rgb(68,68,68);font-style:normal;text-align:left;font-weight:normal;"><tspan x="988.8750343322754" y="204.39999999999998"><tspan>Save Model and Load Pre-Trained Model</tspan></tspan></text></g></g><g id="cbfb8463e20e"><rect x="975.8750343322754" y="102" rx="5px" ry="5px" width="352" height="46" style="fill: #ffffff; stroke:rgb(187,187,187);stroke-width:1px;"></rect><g><text text-anchor="start" align="top" anchor="start" font-size="17px" font-weight="normal" fill="rgb(68, 68, 68)" style="font-size:17px;font-family:微软雅黑;color:rgb(68,68,68);font-style:normal;text-align:left;font-weight:normal;"><tspan x="988.8750343322754" y="132.4"><tspan>Visualization : draw decision boundaries</tspan></tspan></text></g></g><g id="352badb7cb50"><rect x="975.8750343322754" y="30" rx="5px" ry="5px" width="422" height="46" style="fill: #ffffff; stroke:rgb(187,187,187);stroke-width:1px;"></rect><g><text text-anchor="start" align="top" anchor="start" font-size="17px" font-weight="normal" fill="rgb(68, 68, 68)" style="font-size:17px;font-family:微软雅黑;color:rgb(68,68,68);font-style:normal;text-align:left;font-weight:normal;"><tspan x="988.8750343322754" y="60.400000000000006"><tspan>Evaluate Models: accuracy, mean squared error...</tspan></tspan></text></g></g><g id="5da7c7e2c282"><rect x="257.56250381469727" y="174" rx="5px" ry="5px" width="430" height="46" style="fill: #ffffff; stroke:rgb(187,187,187);stroke-width:1px;"></rect><g><text text-anchor="start" align="top" anchor="start" font-size="17px" font-weight="normal" fill="rgb(68, 68, 68)" style="font-size:17px;font-family:微软雅黑;color:rgb(68,68,68);font-style:normal;text-align:left;font-weight:normal;"><tspan x="270.56250381469727" y="204.39999999999998"><tspan>Model Selection : cross validation and grid search</tspan></tspan></text></g></g><g id="2cc70cf51a18"><rect x="30" y="102" rx="5px" ry="5px" width="657" height="46" style="fill: #ffffff; stroke:rgb(187,187,187);stroke-width:1px;"></rect><g><text text-anchor="start" align="top" anchor="start" font-size="17px" font-weight="normal" fill="rgb(68, 68, 68)" style="font-size:17px;font-family:微软雅黑;color:rgb(68,68,68);font-style:normal;text-align:left;font-weight:normal;"><tspan x="42.999996185302734" y="132.4"><tspan>Optimizers : ClipDCD optimizer or gradient base method (use C++ extension)</tspan></tspan></text></g></g><g id="fc169d9b59c1"><rect x="464.75000381469727" y="30" rx="5px" ry="5px" width="222" height="46" style="fill: #ffffff; stroke:rgb(187,187,187);stroke-width:1px;"></rect><g><text text-anchor="start" align="top" anchor="start" font-size="17px" font-weight="normal" fill="rgb(68, 68, 68)" style="font-size:17px;font-family:微软雅黑;color:rgb(68,68,68);font-style:normal;text-align:left;font-weight:normal;"><tspan x="477.75000381469727" y="60.400000000000006"><tspan>SVC and SVR estimators</tspan></tspan></text></g></g><g transform="translate(975.8750343322754, 174)" id="sdjakdjak0"><g id="subline_8c68cfd9da8d" transform="translate(0.5,0.5)"></g><g transform="translate(0.5,0.5)"></g><g class="svg-summary-con" transform="translate(0.5,0.5)"></g><g class="svg-boundary-con" transform="translate(0.5,0.5)"></g></g><g transform="translate(975.8750343322754, 102)" id="sdjakdjak1"><g id="subline_cbfb8463e20e" transform="translate(0.5,0.5)"></g><g transform="translate(0.5,0.5)"></g><g class="svg-summary-con" transform="translate(0.5,0.5)"></g><g class="svg-boundary-con" transform="translate(0.5,0.5)"></g></g><g transform="translate(975.8750343322754, 30)" id="sdjakdjak2"><g id="subline_352badb7cb50" transform="translate(0.5,0.5)"></g><g transform="translate(0.5,0.5)"></g><g class="svg-summary-con" transform="translate(0.5,0.5)"></g><g class="svg-boundary-con" transform="translate(0.5,0.5)"></g></g><g transform="translate(257.56250381469727, 174)" id="sdjakdjak3"><g id="subline_5da7c7e2c282" transform="translate(0.5,0.5)"></g><g transform="translate(0.5,0.5)"></g><g class="svg-summary-con" transform="translate(0.5,0.5)"></g><g class="svg-boundary-con" transform="translate(0.5,0.5)"></g></g><g transform="translate(30, 102)" id="sdjakdjak4"><g id="subline_2cc70cf51a18" transform="translate(0.5,0.5)"></g><g transform="translate(0.5,0.5)"></g><g class="svg-summary-con" transform="translate(0.5,0.5)"></g><g class="svg-boundary-con" transform="translate(0.5,0.5)"></g></g><g transform="translate(464.75000381469727, 30)" id="sdjakdjak5"><g id="subline_fc169d9b59c1" transform="translate(0.5,0.5)"></g><g transform="translate(0.5,0.5)"></g><g class="svg-summary-con" transform="translate(0.5,0.5)"></g><g class="svg-boundary-con" transform="translate(0.5,0.5)"></g></g><g transform="translate(746.8750343322754, 90)" id="sdjakdjak6"><g id="subline_root" transform="translate(0.5,0.5)"></g><g transform="translate(0.5,0.5)"></g><g class="svg-summary-con" transform="translate(0.5,0.5)"></g><g class="svg-boundary-con" transform="translate(0.5,0.5)"></g></g><g id="root"><rect x="746.8750343322754" y="90" rx="5px" ry="5px" width="169" height="70" style="fill: #50C28B; stroke:none;"></rect><g><text text-anchor="start" align="top" anchor="start" font-size="26px" font-weight="normal" fill="rgb(255, 255, 255)" style="font-size:26px;font-family:微软雅黑;color:#fff;font-style:normal;text-align:left;font-weight:normal;"><tspan x="761.8750343322754" y="136.2"><tspan style="font-style:italic;font-weight:bold;">manysvms</tspan></tspan></text></g></g></svg>